@startuml Handler-Funktionen und Handler-Klasse

!pragma useNewPackage
skinparam classAttributeIconSize 2
skinparam componentStyle uml2

interface Promise<T>

package express {
  package core {
    interface Express
  }

  class "express()" as express
  hide express circle

  interface Request
  interface Response
}

class App <<boudary>> {
  + readonly app: Express
}
App ..> Express
App ..> express

package album {
  package entity {
    interface AlbumData <<entity>> {
    }
  }

  package service {
    class AlbumService << control >> {
    }
  }

  package rest #DDDDDD {
    "Handler Functions" .right.> Request
    "Handler Functions" ..> Response
    "Handler Functions" ..> Promise
    "Handler Functions" ..> AlbumHandler

    AlbumHandler o--> "1" AlbumService : service
    AlbumHandler .right.> Request
    AlbumHandler ..> Response
    AlbumHandler ..> AlbumData
    AlbumHandler ..> Promise

    class "Handler Functions" << boundary >> {
      + async findById(req: Request, res: Response): Promise<void>
      + async find(req: Request, res: Response): Promise<void>
      + async create(req: Request, res: Response): Promise<void>
      + async update(req: Request, res: Response): Promise<void>
      + async deleteFn(req: Request, res: Response): Promise<void>
    }
    hide "Handler Functions" << boundary >> circle

    class AlbumHandler << control >> {
      + async findById(req: Request, res: Response): Promise<void>
      + async find(req: Request, res: Response): Promise<void>
      + async create(req: Request, res: Response): Promise<void>
      + async update(req: Request, res: Response): Promise<void>
      + async delete(req: Request, res: Response): Promise<void>
    }
  }
}

App ..> "Handler Functions"

hide empty members

footer (c) Alexander Mader, Matthias Treiste, Glynis Zolk

@enduml