@startuml Handler-Funktionen und Handler-Klasse

!pragma useNewPackage
skinparam classAttributeIconSize 2
skinparam componentStyle uml2

interface Promise<T>

package express {
  package core {
    interface Express
  }

  class "express()" as express
  hide express circle

  interface Request
  interface Response
}

class App <<boudary>> {
  + readonly app: Express
}
App ..> Express
App ..> express

package song {
  package entity {
    interface SongData <<entity>> {
    }
  }

  package service {
    class SongService << control >> {
    }
  }

  package rest #DDDDDD {
    "Handler Functions" .right.> Request
    "Handler Functions" ..> Response
    "Handler Functions" ..> Promise
    "Handler Functions" ..> SongHandler

    SongHandler o--> "1" SongService : service
    SongHandler .right.> Request
    SongHandler ..> Response
    SongHandler ..> SongData
    SongHandler ..> Promise

    class "Handler Functions" << boundary >> {
      + async findById(req: Request, res: Response): Promise<void>
      + async find(req: Request, res: Response): Promise<void>
      + async create(req: Request, res: Response): Promise<void>
      + async update(req: Request, res: Response): Promise<void>
      + async deleteFn(req: Request, res: Response): Promise<void>
    }
    hide "Handler Functions" << boundary >> circle

    class SongHandler << control >> {
      + async findById(req: Request, res: Response): Promise<void>
      + async find(req: Request, res: Response): Promise<void>
      + async create(req: Request, res: Response): Promise<void>
      + async update(req: Request, res: Response): Promise<void>
      + async delete(req: Request, res: Response): Promise<void>
    }
  }
}

App ..> "Handler Functions"

hide empty members

footer (c) Alexander Mader, Matthias Treise, Glynis Zolk

@enduml